<?xml version="1.0" encoding="UTF-8" standalone="no"?><!DOCTYPE svg PUBLIC "-//W3C//DTD SVG 1.1//EN" "http://www.w3.org/Graphics/SVG/1.1/DTD/svg11.dtd"><svg width="596px" height="153px" version="1.1" xmlns="http://www.w3.org/2000/svg" xmlns:xlink="http://www.w3.org/1999/xlink" xml:space="preserve" xmlns:serif="http://www.serif.com/" style="fill-rule:evenodd;clip-rule:evenodd;stroke-linejoin:round;stroke-miterlimit:2;"><path d="M595.3,99.8C595.3,72.3 576,49.5 548.9,49.5C519.7,49.5 501.1,73.5 501.1,100.8C501.1,131.6 523.2,151.9 552.6,151.9C567.9,151.9 583.4,145.5 593,134.3L577.9,119.2C573.3,124.2 564.4,130.6 553.1,130.6C539.2,130.6 528,121.1 526.6,107.2L594.7,107.2C595.1,105.1 595.3,102.4 595.3,99.8ZM568.2,88L527.6,88C528.8,79.1 537.7,70.8 548.7,70.8C559.5,70.8 567.4,79.3 568.2,88ZM490.4,107.4C490.8,105.1 491,102.6 491,99.9C491,72.4 471.7,49.6 444.6,49.6C415.4,49.6 396.8,73.6 396.8,100.9C396.8,131.7 418.9,152 448.3,152C463.6,152 479.1,145.6 488.7,134.4L473.6,119.3C469,124.3 460.1,130.7 448.8,130.7C434.9,130.7 423.7,121.2 422.3,107.3L490.4,107.3L490.4,107.4ZM463.9,88L423.3,88C424.5,79.1 433.4,70.8 444.4,70.8C455.2,70.8 463.1,79.3 463.9,88ZM353.6,149.9L380,149.9L380,0L353.7,0L353.6,149.9ZM326,149.9L326,0L299.7,0L299.7,149.9L326,149.9ZM253.2,149.9L278.5,149.9L278.5,51.4L253.2,51.4L253.2,59.3C245.5,52.9 235.6,49.4 224.4,49.4C197.7,49.4 176,71.6 176,100.7C176,114 180.8,126.2 188.6,135.1C197.3,145.2 211,151.7 225.7,151.7C235.6,151.7 245,148.6 253.2,141.8L253.2,149.9ZM252.3,115.3C247.3,122.7 238.6,127.5 228.5,127.5C213.6,127.5 202.6,116.1 202.6,100.8C202.6,86.7 212.5,73.9 227.9,73.9C238,73.9 246.9,78.7 252.3,86.1L252.3,115.3ZM154.6,136.2C160.8,128.5 164.5,118.4 164.5,103.7L164.5,51.7L138.2,51.7L138.2,104.9C138.2,113.8 136.5,118.2 133.4,121.7C129.3,126.1 123.7,127.7 118.5,127.7C110,127.7 102.6,123.3 98.2,118.8C96.7,115.9 95.7,112.2 95.5,106.6C95.5,105.6 95.7,104.9 95.7,103.9L95.7,51.7L68.9,51.7L68.9,103.7C68.9,104.7 68.9,105.6 69.1,106.4C68.9,112 67.9,115.9 66.4,118.6C62,123 54.8,127.5 46.1,127.5C41.1,127.5 35.3,126 31.2,121.5C28.1,118 26.4,113.6 26.4,104.7L26.4,51.7L0,51.7L0,103.7C0,118.2 3.7,128.5 9.9,136.2C17.8,145.9 30.8,152.1 44.3,152.1C58.8,152.1 71.2,144.9 79.1,136.6L82,134.5L84.9,136.6C92.8,144.9 105.2,152.1 119.7,152.1C133.7,152.1 146.6,145.9 154.6,136.2Z" style="fill:rgb(17,217,204);fill-rule:nonzero;"/></svg>